<?xml version="1.0" encoding="utf-8"?>
<!-- Generator: Adobe Illustrator 27.0.1, SVG Export Plug-In . SVG Version: 6.00 Build 0)  -->
<svg version="1.1" id="Layer_1" xmlns="http://www.w3.org/2000/svg" xmlns:xlink="http://www.w3.org/1999/xlink" x="0px" y="0px"
	 viewBox="0 0 69 36" style="enable-background:new 0 0 69 36;" xml:space="preserve">
<style type="text/css">
	.st0{fill-rule:evenodd;clip-rule:evenodd;fill:#005EB8;}
</style>
<path class="st0" d="M38.1,14.5l-0.6,2.8h1.2c0.7,0,1.2,0,1.4-0.1c0.6-0.2,1-0.6,1.2-1.3c0-0.1,0.1-0.3,0.1-0.4
	c0-0.4-0.2-0.7-0.7-0.9c-0.3-0.1-0.7-0.1-1.3-0.1H38.1z M49.1,19.5h3.3l-0.5-4.8h-0.1L49.1,19.5z M25.7,19l-0.6,2.7h1.8
	c1.1,0,1.8-0.4,2-1.3c0-0.1,0.1-0.3,0.1-0.4c0-0.7-0.5-1-1.6-1H25.7z M26.7,14.4L26.1,17h1.6c0.6,0,1,0,1.2-0.1
	c0.5-0.2,0.8-0.6,0.9-1.1c0.1-0.4,0-0.8-0.2-1c-0.2-0.2-0.5-0.3-1-0.3H26.7z M21.4,23.9l2.5-11.5h6.5c0.2,0,0.4,0,0.5,0.1
	c0.8,0.1,1.3,0.4,1.7,0.8c0.4,0.4,0.5,0.8,0.5,1.4c0,0.2,0,0.4-0.1,0.6c-0.3,1.3-1.3,2.2-3.1,2.6l0,0c1.6,0.3,2.3,1,2.3,2.2
	c0,0.7-0.2,1.4-0.6,2c-0.4,0.6-1,1.1-1.7,1.4c-0.7,0.3-1.8,0.5-3.4,0.5H21.4z M0.1,20.1h3.3c0,0.2-0.1,0.4-0.1,0.5
	c0,0.8,0.6,1.2,1.7,1.2c1.2,0,1.9-0.4,2-1.3c0-0.1,0-0.2,0-0.3c0-0.4-0.3-0.6-0.8-0.8l-2.7-0.7c-1.6-0.4-2.3-1.2-2.3-2.3
	c0-0.2,0-0.5,0.1-0.7c0.2-1,0.8-1.8,1.7-2.4c1-0.7,2.4-1.1,4-1.1c2.8,0,4.2,0.8,4.2,2.5c0,0.3,0,0.6-0.1,1H7.8
	c0.1-0.2,0.1-0.4,0.1-0.5c0-0.7-0.4-1-1.3-1c-0.5,0-0.9,0.1-1.2,0.3c-0.3,0.2-0.5,0.5-0.6,0.8c0,0.1,0,0.2,0,0.3
	c0,0.4,0.3,0.7,1,0.9l2.1,0.5c0.9,0.2,1.5,0.5,1.9,0.7c0.6,0.4,0.9,0.9,0.9,1.7c0,0.2,0,0.5-0.1,0.8c-0.3,1.2-1,2.1-2.1,2.7
	c-1,0.6-2.4,0.9-3.9,0.9c-2,0-3.4-0.4-4-1.3C0.2,22.2,0,21.7,0,21.1C0,20.8,0,20.5,0.1,20.1z M10.9,23.9l2.5-11.5h9L22,14.6h-5.7
	L15.7,17h5.4l-0.5,2.2h-5.4l-0.5,2.5h5.9l-0.5,2.2L10.9,23.9L10.9,23.9z M57.4,23.9L60,12.4h9l-0.5,2.2h-5.7L62.3,17h5.4l-0.5,2.2
	h-5.4l-0.5,2.5h5.9l-0.5,2.2L57.4,23.9L57.4,23.9z M25.7,3.9h21.8L48.3,0H26.5L25.7,3.9z M24.4,10h21.8L47,6.1H25.2L24.4,10z
	 M20,30.2h21.8l0.8-3.9H20.8L20,30.2z M18.7,36.3h21.8l0.8-3.9H19.5L18.7,36.3z M43.2,23.9l7.3-11.4h4.1l2.2,11.5h-3.8l-0.3-2.3
	h-4.8l-1.3,2.3L43.2,23.9h-3.6c0-0.4,0-1.3,0.2-2.6c0-0.5,0.1-0.8,0.1-0.9c0-0.4-0.1-0.6-0.3-0.7c-0.2-0.1-0.5-0.2-1.1-0.2h-1.4
	l-1,4.5h-3.3l2.5-11.5h5.6c1,0,1.6,0,1.9,0.1c0.8,0.1,1.3,0.4,1.6,0.8c0.3,0.4,0.5,0.8,0.5,1.4c0,0.3,0,0.6-0.1,0.9
	c-0.2,1-0.7,1.7-1.6,2.1c-0.5,0.3-1.2,0.5-2,0.6l0,0.1c0.9,0,1.5,0.2,1.8,0.5c0.3,0.3,0.4,0.7,0.4,1.3c0,0.2,0,0.5-0.1,1
	C43.1,22.5,43.1,23.4,43.2,23.9z"/>
</svg>
